<svg xmlns="http://www.w3.org/2000/svg" xmlns:xlink="http://www.w3.org/1999/xlink" width="775.301" height="791.159" viewBox="0 0 775.301 791.159"><defs><filter id="a" x="8.301" y="95.5" width="723.328" height="603.579" filterUnits="userSpaceOnUse"><feOffset dy="9" input="SourceAlpha"/><feGaussianBlur stdDeviation="15.5" result="b"/><feFlood flood-opacity="0.059"/><feComposite operator="in" in2="b"/><feComposite in="SourceGraphic"/></filter><filter id="c" x="324.301" y="0" width="451" height="445" filterUnits="userSpaceOnUse"><feOffset dy="9" input="SourceAlpha"/><feGaussianBlur stdDeviation="20" result="d"/><feFlood flood-color="#96b0b8" flood-opacity="0.2"/><feComposite operator="in" in2="d"/><feComposite in="SourceGraphic"/></filter><clipPath id="e"><rect width="180.749" height="180.749" fill="#fff"/></clipPath><clipPath id="f"><path d="M75.538,0l75.538,99.381H0Z" transform="matrix(-0.407, 0.914, -0.914, -0.407, 152.238, 40.422)" fill="#fff" stroke="#fff" stroke-width="1"/></clipPath><clipPath id="g"><path d="M70.464,0l70.465,99.381H0Z" transform="matrix(-0.407, 0.914, -0.914, -0.407, 148.11, 40.422)" fill="#fff" stroke="#707070" stroke-width="1"/></clipPath><filter id="h" x="0" y="528.216" width="729.358" height="262.943" filterUnits="userSpaceOnUse"><feOffset dy="9" input="SourceAlpha"/><feGaussianBlur stdDeviation="25" result="i"/><feFlood flood-opacity="0.059"/><feComposite operator="in" in2="i"/><feComposite in="SourceGraphic"/></filter></defs><g transform="translate(-85.199 -3207)"><g transform="translate(140 3359.215)"><path d="M-143.469-117.654C-188.444-93.122-173.533,16.31-159.343,101.21c13.95,84.9,26.937,145.267,50.747,211.167,24.051,65.9,58.684,137.571,118.33,173.166,59.646,35.836,144.305,35.836,206.6,1.684,62.532-34.152,102.938-102.457,168.6-175.812s156.812-151.521,142.862-208.04C513.842,47.1,394.55,12.462,307.726-4.614S166.307-21.691,86.458-51.754-98.494-142.186-143.469-117.654Z" transform="translate(173.594 123.382)" fill="rgba(159,166,170,0.06)"/></g><g transform="translate(-18 79)"><g transform="translate(158 3261)"><g transform="matrix(1, 0, 0, 1, -54.8, -133)" filter="url(#a)"><path d="M2.264,0h625.8a2.161,2.161,0,0,1,2.264,2.045V508.527a2.161,2.161,0,0,1-2.264,2.045H2.264A2.161,2.161,0,0,1,0,508.527V2.044A2.161,2.161,0,0,1,2.264,0Z" transform="translate(54.8 133)" fill="#fff"/></g><g transform="translate(57.429 75.746)"><path d="M552.721,394.308c-11.589,9.614-28.08,13.6-44.028,16.1l-2.684.409a504.023,504.023,0,0,1-50.4,4.612c-9.043.438-18.086.747-27.128,1.023l-7.087.209q-13.8.409-27.656.8-13.564.386-27.128.724-17.372.423-34.743.7-13.564.214-27.128.295-17.377.1-34.743-.07-13.573-.139-27.128-.476-17.381-.448-34.743-1.309-11.782-.576-23.554-1.385l-3.574-.252c-33.682-2.427-67.968-6.782-97.442-20.546l-.795-.376c-.4-.185-.79-.372-1.185-.566a106.661,106.661,0,0,1-15.5-9.086c-8.715-6.215-15.91-13.8-19.713-22.8-5.959-14.116-2.808-29.984,4-43.783s17.024-26.262,25.865-39.26c2.589-3.807,5.045-7.758,7.329-11.808,14.278-25.4,21.36-54.794,6.392-79.27a108.791,108.791,0,0,0-6.392-9.042c-3.65-4.76-7.363-9.519-9.871-14.787-5.849-12.26-4.593-26.048-2.46-39.145,2.858-17.414,8.091-36.171,24.454-47.051,16.976-11.3,41.073-10.728,62.143-6.663,32.758,6.275,62.995,19.418,93.516,31.269s62.495,22.688,96.053,23.854a153.3,153.3,0,0,0,21.6-.785h0a136.979,136.979,0,0,0,28.138-5.926c13.207-4.35,25.224-10.894,34.134-19.989,19.109-19.442,55.018-20.915,80.909-9.171,24.705,11.2,40.683,34.914,39.5,58.6-1.342,26.362-21.084,48.036-39.174,70.267-2.194,2.694-4.359,5.4-6.468,8.119q-1.766,2.28-3.465,4.569h0c-1.985,2.694-3.9,5.4-5.711,8.143-9.243,14.054-15.777,30.935-9.412,46.108,3.57,8.5,10.38,14.978,18.59,20.637,18.394,12.674,43.783,21.2,55.208,38.945C571.073,361.444,567.427,382.086,552.721,394.308Z" transform="translate(-43.213 -68.852)" fill="#00b8de" opacity="0.06"/><g transform="translate(114.491 157.8)" opacity="0.1"><path d="M354.378,780.436a8.171,8.171,0,0,1-.07.952q-3.95-1.571-7.762-3.365a6.287,6.287,0,0,1-3.588-1.746q-1.116-.566-2.213-1.152a8.983,8.983,0,0,1,.561-1.009,6.418,6.418,0,0,1,11.689.362A11.661,11.661,0,0,1,354.378,780.436Z" transform="translate(-313.629 -594.377)" fill="#3f3d56"/><path d="M353.885,755.524a11.7,11.7,0,0,1-1.733,5.868,6.974,6.974,0,0,1-5.978,3.583l-.476-.038a6.287,6.287,0,0,1-3.588-1.746,8.566,8.566,0,0,1-1.652-2.161,12.15,12.15,0,0,1,.371-11.846,6.437,6.437,0,0,1,11.713.362A11.661,11.661,0,0,1,353.885,755.524Z" transform="translate(-312.767 -581.311)" fill="#3f3d56"/><ellipse cx="9.695" cy="7.405" rx="9.695" ry="7.405" transform="translate(26.394 171.613) rotate(-88.19)" fill="#3f3d56"/><ellipse cx="9.695" cy="7.405" rx="9.695" ry="7.405" transform="translate(26.764 159.769) rotate(-88.19)" fill="#3f3d56"/><ellipse cx="9.695" cy="7.405" rx="9.695" ry="7.405" transform="translate(27.138 147.921) rotate(-88.19)" fill="#3f3d56"/><path d="M293.457,456.946a36.084,36.084,0,0,1-2.632-4.145l19.551-2.6-21.041-.476a35.523,35.523,0,0,1,.209-28.118l27.761,15.53L291.88,417.171a35.476,35.476,0,1,1,57.308,41.53,35.425,35.425,0,0,1,3.841,6.6l-25.663,12.317,27.215-8.186a35.528,35.528,0,0,1-6.768,33.125,35.476,35.476,0,1,1-55.741-1.761,35.475,35.475,0,0,1,1.385-43.843Z" transform="translate(-283.774 -400.425)" fill="#00425f"/><path d="M356.09,568.794a35.347,35.347,0,0,1-8.276,21.688,35.476,35.476,0,1,1-55.741-1.761C287.508,582.534,356.224,564.811,356.09,568.794Z" transform="translate(-283.774 -488.354)" opacity="0.1"/></g><g transform="translate(362.347 95.862)" opacity="0.1"><path d="M875.144,650.386a9.258,9.258,0,0,1-.07.952q-3.955-1.57-7.762-3.365a6.311,6.311,0,0,1-3.593-1.746c-.738-.376-1.48-.761-2.213-1.152a9.826,9.826,0,0,1,.561-1.009,6.418,6.418,0,0,1,11.689.362A11.662,11.662,0,0,1,875.144,650.386Z" transform="translate(-834.401 -464.283)" fill="#3f3d56"/><path d="M874.705,625.475a11.7,11.7,0,0,1-1.737,5.868,6.971,6.971,0,0,1-5.978,3.584l-.476-.038a6.312,6.312,0,0,1-3.593-1.747,8.727,8.727,0,0,1-1.652-2.161,12.152,12.152,0,0,1,.372-11.846,6.437,6.437,0,0,1,11.713.362A11.664,11.664,0,0,1,874.705,625.475Z" transform="translate(-833.563 -451.218)" fill="#3f3d56"/><ellipse cx="9.695" cy="7.405" rx="9.695" ry="7.405" transform="translate(26.406 171.652) rotate(-88.19)" fill="#3f3d56"/><ellipse cx="9.695" cy="7.405" rx="9.695" ry="7.405" transform="translate(26.782 159.809) rotate(-88.19)" fill="#3f3d56"/><ellipse cx="9.695" cy="7.405" rx="9.695" ry="7.405" transform="translate(27.156 147.965) rotate(-88.19)" fill="#3f3d56"/><path d="M814.234,326.838a35.01,35.01,0,0,1-2.627-4.145l19.551-2.575-21.041-.509a35.556,35.556,0,0,1,.205-28.118l27.761,15.53-25.424-19.956a35.481,35.481,0,1,1,57.312,41.53,35.414,35.414,0,0,1,3.835,6.6l-25.663,12.317,27.207-8.187a35.49,35.49,0,0,1-6.768,33.12,35.471,35.471,0,1,1-55.727-1.761,35.476,35.476,0,0,1,1.385-43.843Z" transform="translate(-804.555 -270.274)" fill="#00425f"/><path d="M876.876,438.743a35.315,35.315,0,0,1-8.281,21.682,35.471,35.471,0,1,1-55.732-1.761C808.293,452.482,877,434.755,876.876,438.743Z" transform="translate(-804.559 -358.26)" opacity="0.1"/></g><ellipse cx="27.133" cy="5.216" rx="27.133" ry="5.216" transform="translate(64.959 346.891)" fill="#00425f"/><ellipse cx="3.16" cy="4.136" rx="3.16" ry="4.136" transform="translate(88.48 345.754)" fill="#00425f"/><ellipse cx="3.16" cy="4.136" rx="3.16" ry="4.136" transform="translate(88.48 340.699)" fill="#00425f"/><ellipse cx="3.16" cy="4.136" rx="3.16" ry="4.136" transform="translate(88.48 335.644)" fill="#00425f"/><ellipse cx="3.16" cy="4.136" rx="3.16" ry="4.136" transform="translate(88.48 330.591)" fill="#00425f"/><ellipse cx="3.16" cy="4.136" rx="3.16" ry="4.136" transform="translate(88.48 325.536)" fill="#00425f"/><ellipse cx="3.16" cy="4.136" rx="3.16" ry="4.136" transform="translate(88.48 320.481)" fill="#00425f"/><ellipse cx="3.16" cy="4.136" rx="3.16" ry="4.136" transform="translate(88.48 315.427)" fill="#3f3d56"/><path d="M230.849,640.65a15.394,15.394,0,0,0,1.175-1.733l-8.3-1.366,8.976.07a15.178,15.178,0,0,0,.29-11.992l-12.046,6.246,11.108-8.181a15.134,15.134,0,1,0-25,16.942,15.229,15.229,0,0,0-1.723,2.76l10.775,5.6-11.489-3.855a15.144,15.144,0,0,0,2.44,14.211,15.134,15.134,0,1,0,23.8,0,15.144,15.144,0,0,0,0-18.714Z" transform="translate(-127.382 -355.678)" fill="#00b8de"/><path d="M203.82,687.034a15.073,15.073,0,0,0,3.236,9.357,15.134,15.134,0,1,0,23.8,0C232.879,693.816,203.82,685.335,203.82,687.034Z" transform="translate(-127.381 -392.705)" fill="#00b8de" opacity="0.1"/><path d="M359.838,570.377V677.938q-11.782-.576-23.554-1.385l-3.574-.252V570.377a4.2,4.2,0,0,1,4.2-4.2H355.64a4.2,4.2,0,0,1,4.2,4.2Z" transform="translate(-194.929 -329.486)" fill="#00b8de"/><path d="M462.71,600.141V419.377a4.2,4.2,0,0,1,4.2-4.2H485.64a4.2,4.2,0,0,1,4.2,4.2V600.613Z" transform="translate(-263.057 -250.352)" fill="#00b8de"/><path d="M592.71,642.109V498.377a4.2,4.2,0,0,1,4.2-4.2H615.64a4.2,4.2,0,0,1,4.2,4.2V641.8Z" transform="translate(-331.186 -291.753)" fill="#00b8de"/><path d="M749.838,274.377v248.6q-13.564.386-27.128.724V274.377a4.2,4.2,0,0,1,4.2-4.2H745.64A4.2,4.2,0,0,1,749.838,274.377Z" transform="translate(-399.315 -174.362)" fill="#00b8de"/><path d="M879.838,379.377v196.56c-9.042.438-18.086.747-27.128,1.023V379.377a4.2,4.2,0,0,1,4.2-4.2H875.64a4.2,4.2,0,0,1,4.2,4.2Z" transform="translate(-467.444 -229.389)" fill="#00b8de"/><path d="M318.5,230.286l36.752-40.994,25.119-28.018,61.871,34.743,28.688-49.43L504.116,89.41l39.1,32.181,22.772,18.744" transform="translate(-166.916 -52.123)" fill="none" stroke="#00425f" stroke-linecap="round" stroke-miterlimit="10" stroke-width="3"/><circle cx="13.326" cy="13.326" r="13.326" transform="translate(138.019 164.837)" fill="#00b8de"/><circle cx="13.326" cy="13.326" r="13.326" transform="translate(199.891 95.827)" fill="#00b8de"/><circle cx="13.326" cy="13.326" r="13.326" transform="translate(261.762 130.57)" fill="#00b8de"/><circle cx="13.326" cy="13.326" r="13.326" transform="translate(323.633 23.961)" fill="#00b8de"/><circle cx="13.326" cy="13.326" r="13.326" transform="translate(385.699 73.853)" fill="#00b8de"/></g><text transform="translate(29.009 28.295)" fill="#0b0b0b" font-size="13" font-family="Roboto-Medium, Roboto" font-weight="500"><tspan x="0" y="0">Transaction insights</tspan></text><line x2="630.252" transform="translate(0.076 48.805)" fill="none" stroke="rgba(112,112,112,0.4)" stroke-width="0.4"/></g><g transform="translate(-14.5 -61)"><g transform="matrix(1, 0, 0, 1, 117.7, 3189)" filter="url(#c)"><rect width="331" height="325" rx="4" transform="translate(384.3 51)" fill="#fff"/></g><g transform="translate(0.6)"><text transform="translate(516.4 3269)" fill="#0b0b0b" font-size="11" font-family="Roboto-Medium, Roboto" font-weight="500"><tspan x="0" y="0">Collection breakdown</tspan></text><g transform="translate(685.309 3253.05)"><g transform="translate(0 -0.05)" fill="#fff" stroke="rgba(150,176,184,0.6)" stroke-width="0.6"><rect width="131.023" height="23.679" rx="2" stroke="none"/><rect x="0.3" y="0.3" width="130.423" height="23.079" rx="1.7" fill="none"/></g><text transform="translate(7.893 14.95)" fill="#0b0b0b" font-size="10" font-family="Roboto-Regular, Roboto"><tspan x="0" y="0">Payment method</tspan></text><path d="M3.157,0,6.314,3.946H0Z" transform="translate(122.341 13.896) rotate(180)" fill="#cacaca"/></g></g><g transform="translate(577 3311.879)"><g transform="translate(0 0)" clip-path="url(#e)"><g transform="translate(-20.104 -12.478)"><g transform="translate(24.051 19.582)" fill="#fff" stroke="#00425f" stroke-width="30"><ellipse cx="86.033" cy="85.244" rx="86.033" ry="85.244" stroke="none"/><ellipse cx="86.033" cy="85.244" rx="71.033" ry="70.244" fill="none"/></g><g transform="translate(0 0)" clip-path="url(#f)"><g transform="translate(23.636 19.601)" fill="#fff"><path d="M 85.98111724853516 149.0579071044922 C 50.97748184204102 149.0579071044922 22.49998092651367 120.6710891723633 22.49998092651367 85.77895355224609 C 22.49998092651367 50.88681793212891 50.97748184204102 22.49999809265137 85.98111724853516 22.49999809265137 C 120.9847564697266 22.49999809265137 149.4622497558594 50.88681793212891 149.4622497558594 85.77895355224609 C 149.4622497558594 120.6710891723633 120.9847564697266 149.0579071044922 85.98111724853516 149.0579071044922 Z" stroke="none"/><path d="M 85.98111724853516 45.00002288818359 C 63.38404846191406 45.00002288818359 44.99998474121094 63.29335021972656 44.99998474121094 85.77895355224609 C 44.99998474121094 108.2645568847656 63.38404846191406 126.5578918457031 85.98111724853516 126.5578918457031 C 108.5781860351563 126.5578918457031 126.9622497558594 108.2645568847656 126.9622497558594 85.77895355224609 C 126.9622497558594 63.29335021972656 108.5781860351563 45.00002288818359 85.98111724853516 45.00002288818359 M 85.98111724853516 1.52587890625e-05 C 133.4671783447266 1.52587890625e-05 171.9622497558594 38.40455627441406 171.9622497558594 85.77895355224609 C 171.9622497558594 133.1533508300781 133.4671783447266 171.5578918457031 85.98111724853516 171.5578918457031 C 38.49505615234375 171.5578918457031 -1.52587890625e-05 133.1533508300781 -1.52587890625e-05 85.77895355224609 C -1.52587890625e-05 38.40455627441406 38.49505615234375 1.52587890625e-05 85.98111724853516 1.52587890625e-05 Z" stroke="none" fill="#fff"/></g></g><g transform="translate(1.762 4.754)" clip-path="url(#g)"><g transform="translate(22.552 15.343)" fill="#fff"><path d="M 85.12006378173828 155.2401428222656 C 46.45574188232422 155.2401428222656 14.99999237060547 123.7843856811523 14.99999237060547 85.12006378173828 C 14.99999237060547 46.45574188232422 46.45574188232422 14.99999237060547 85.12006378173828 14.99999237060547 C 123.7843856811523 14.99999237060547 155.2401428222656 46.45574188232422 155.2401428222656 85.12006378173828 C 155.2401428222656 123.7843856811523 123.7843856811523 155.2401428222656 85.12006378173828 155.2401428222656 Z" stroke="none"/><path d="M 85.12006378173828 30.00001525878906 C 54.72676086425781 30.00001525878906 30.00001525878906 54.72676086425781 30.00001525878906 85.12006378173828 C 30.00001525878906 115.5133666992188 54.72676086425781 140.2401123046875 85.12006378173828 140.2401123046875 C 115.5133666992188 140.2401123046875 140.2401123046875 115.5133666992188 140.2401123046875 85.12006378173828 C 140.2401123046875 54.72676086425781 115.5133666992188 30.00001525878906 85.12006378173828 30.00001525878906 M 85.12006378173828 1.52587890625e-05 C 132.1305694580078 1.52587890625e-05 170.2401123046875 38.10955810546875 170.2401123046875 85.12006378173828 C 170.2401123046875 132.1305694580078 132.1305694580078 170.2401123046875 85.12006378173828 170.2401123046875 C 38.10955810546875 170.2401123046875 1.52587890625e-05 132.1305694580078 1.52587890625e-05 85.12006378173828 C 1.52587890625e-05 38.10955810546875 38.10955810546875 1.52587890625e-05 85.12006378173828 1.52587890625e-05 Z" stroke="none" fill="#00b8de"/></g></g></g></g><text transform="translate(89.99 87.121)" fill="#0b0b0b" font-size="12" font-family="Roboto-Regular, Roboto"><tspan x="-6.738" y="0">20</tspan><tspan x="-34.588" y="16">Transactions</tspan></text></g><g transform="translate(576 3517.464)"><path d="M5.6,0a5.467,5.467,0,0,1,5.6,5.329,5.467,5.467,0,0,1-5.6,5.329A5.467,5.467,0,0,1,0,5.329,5.467,5.467,0,0,1,5.6,0Z" transform="translate(0 4.294)" fill="#00b8de"/><text transform="translate(37.354 14)" fill="#0b0b0b" font-size="13" font-family="Roboto-Regular, Roboto"><tspan x="-13.632" y="0">Card</tspan></text><g transform="translate(117)"><text transform="translate(45.537 14)" fill="#0b0b0b" font-size="13" font-family="Roboto-Regular, Roboto"><tspan x="-19.627" y="0">Mobile</tspan></text><path d="M5.6,0a5.467,5.467,0,0,1,5.6,5.329,5.467,5.467,0,0,1-5.6,5.329A5.467,5.467,0,0,1,0,5.329,5.467,5.467,0,0,1,5.6,0Z" transform="translate(0 4.294)" fill="#00425f"/></g></g><path d="M0,0H331" transform="translate(501.5 3287.5)" fill="none" stroke="rgba(150,176,184,0.6)" stroke-width="0.4"/></g><g transform="translate(178.199 3722.216)"><g transform="matrix(1, 0, 0, 1, -75, -594.22)" filter="url(#h)"><rect width="579.358" height="112.943" rx="3" transform="translate(75 594.22)" fill="#fff"/></g><circle cx="4.532" cy="4.532" r="4.532" transform="translate(475.474 12.55)" fill="#0fbe6c"/><text transform="translate(494.995 22.064)" fill="#0b0b0b" font-size="12" font-family="Roboto-Regular, Roboto"><tspan x="0" y="0">Successful</tspan></text><path d="M0,0H561.111" transform="translate(15.803 31.462)" fill="none" stroke="rgba(112,112,112,0.12)" stroke-width="0.5"/><g transform="translate(207.059 55.078)"><g fill="#fff" stroke="rgba(112,112,112,0.4)" stroke-width="0.8"><rect width="165.929" height="36.951" stroke="none"/><rect x="0.4" y="0.4" width="165.129" height="36.151" fill="none"/></g><g transform="translate(23.006 11.155)"><text transform="translate(30.138 11)" fill="#212121" font-size="12" font-family="ProximaNova-Regular, Proxima Nova"><tspan x="0" y="0">Reverse amount</tspan></text><g transform="translate(0 1.397)"><g transform="translate(0 2.323)"><g transform="translate(0 0)"><path d="M10.785,128H.791a.782.782,0,0,0-.777.609.763.763,0,0,0,.747.913H10.785a.127.127,0,0,0,.127-.127v-1.269a.127.127,0,0,0-.127-.127Z" transform="translate(0.001 -128)"/></g></g><g transform="translate(12.168 0)"><g transform="translate(0)"><path d="M387.717,54.05l-3.3-2.789a.254.254,0,0,0-.418.194v5.58a.254.254,0,0,0,.418.194l3.3-2.789a.254.254,0,0,0,0-.388Z" transform="translate(-384 -51.201)"/></g></g><g transform="translate(0 6.291)"><g transform="translate(0 0)"><path d="M3.66,256.031a.254.254,0,0,0-.271.036l-3.3,2.789a.254.254,0,0,0,0,.388l3.3,2.789a.254.254,0,0,0,.418-.194v-5.583a.254.254,0,0,0-.147-.224Z" transform="translate(-0.001 -256.007)"/></g></g><g transform="translate(5.064 8.532)"><g transform="translate(0 0)"><path d="M155.966,333.413a.782.782,0,0,0-.777-.609h-10a.127.127,0,0,0-.127.127V334.2a.127.127,0,0,0,.127.127h10.024a.763.763,0,0,0,.748-.913Z" transform="translate(-145.067 -332.804)"/></g></g></g></g></g><g transform="translate(33.461 55.078)"><g fill="#fff" stroke="rgba(112,112,112,0.4)" stroke-width="0.8"><rect width="165.232" height="36.951" stroke="none"/><rect x="0.4" y="0.4" width="164.432" height="36.151" fill="none"/></g><g transform="translate(31.376 10.458)"><text transform="translate(27.217 11.783)" fill="#212121" font-size="12" font-family="ProximaNova-Regular, Proxima Nova"><tspan x="0" y="0">Debit amount</tspan></text><g transform="translate(13.225 0) rotate(90)"><g transform="translate(4.685 9.094)"><path d="M.139,1.654H10.991a.848.848,0,0,0,.844-.662A.828.828,0,0,0,11.023,0H.139A.139.139,0,0,0,0,.139V1.516a.139.139,0,0,0,.139.138Z"/></g><g transform="translate(0.003 6.622)"><path d="M.094,3.509,3.677,6.541a.279.279,0,0,0,.454-.209V.271A.279.279,0,0,0,3.677.062L.094,3.088a.279.279,0,0,0,0,.418Z"/></g><g transform="translate(12.402)"><path d="M.16,6.588a.279.279,0,0,0,.294-.04L4.036,3.517a.279.279,0,0,0,0-.418L.454.065A.279.279,0,0,0,.279,0,.279.279,0,0,0,0,.279V6.344a.279.279,0,0,0,.16.244Z"/></g><g transform="translate(0 2.481)"><path d="M.016.991a.849.849,0,0,0,.844.662H11.713a.139.139,0,0,0,.139-.139V.139A.139.139,0,0,0,11.713,0H.827A.828.828,0,0,0,.016.991Z"/></g></g></g></g><g transform="translate(380.658 55.078)"><g fill="#fff" stroke="rgba(112,112,112,0.4)" stroke-width="0.8"><rect width="165.929" height="36.951" stroke="none"/><rect x="0.4" y="0.4" width="165.129" height="36.151" fill="none"/></g><g transform="translate(32.765 7.669)"><text transform="translate(33.284 14.487)" fill="#212121" font-size="12" font-family="ProximaNova-Regular, Proxima Nova"><tspan x="0" y="0">Issue refund</tspan></text><g transform="translate(0)"><path d="M26.722,4.516,25.695,5.835a7.7,7.7,0,1,1-4.3-1.6L19.952,5.748,21.024,6.77l2.281-2.395h0L24.327,3.3,23.257,2.281h0L20.862,0,19.839,1.073,21.4,2.559A9.367,9.367,0,0,0,19.517,21.17a9.468,9.468,0,0,0,1.476.116,9.372,9.372,0,0,0,5.729-16.77Z" transform="translate(-11.604)"/><path d="M72.621,78.927h0v-.962a2.29,2.29,0,0,0,2.253-2.216c0-1.859-1.728-2.072-2.99-2.227-.807-.1-1.425-.209-1.425-.7,0-.68.958-.753,1.37-.753a1.86,1.86,0,0,1,1.486.655l.064.107,1.268-.587-.063-.128a2.5,2.5,0,0,0-1.961-1.358v-.848H71.136v.844c-1.382.2-2.2.971-2.2,2.069,0,1.79,1.625,1.971,2.81,2.1,1.056.125,1.548.386,1.548.821,0,.831-1.15.9-1.5.9a1.935,1.935,0,0,1-1.761-.912l-.054-.128-1.378.584.055.128a2.905,2.905,0,0,0,2.486,1.694v.915Z" transform="translate(-62.332 -62.233)"/></g></g></g></g></g></g></svg>