<svg xmlns="http://www.w3.org/2000/svg" xmlns:xlink="http://www.w3.org/1999/xlink" width="694.276" height="801.91" viewBox="0 0 694.276 801.91"><defs><filter id="a" x="3.948" y="153.377" width="660.576" height="595.657" filterUnits="userSpaceOnUse"><feOffset dy="15" input="SourceAlpha"/><feGaussianBlur stdDeviation="20" result="b"/><feFlood flood-opacity="0.09"/><feComposite operator="in" in2="b"/><feComposite in="SourceGraphic"/></filter><filter id="c" x="70.892" y="564.39" width="511.401" height="237.52" filterUnits="userSpaceOnUse"><feOffset dy="9" input="SourceAlpha"/><feGaussianBlur stdDeviation="24" result="d"/><feFlood flood-opacity="0.09"/><feComposite operator="in" in2="d"/><feComposite in="SourceGraphic"/></filter><linearGradient id="e" x1="0.5" x2="0.5" y2="1" gradientUnits="objectBoundingBox"><stop offset="0" stop-color="#00425f"/><stop offset="1" stop-color="#085b80"/></linearGradient><filter id="q" x="92.785" y="0" width="471.594" height="321.759" filterUnits="userSpaceOnUse"><feOffset dy="15" input="SourceAlpha"/><feGaussianBlur stdDeviation="30" result="r"/><feFlood flood-opacity="0.09"/><feComposite operator="in" in2="r"/><feComposite in="SourceGraphic"/></filter><filter id="s" x="35.766" y="46.205" width="252.046" height="104.837" filterUnits="userSpaceOnUse"><feOffset dy="9" input="SourceAlpha"/><feGaussianBlur stdDeviation="10" result="t"/><feFlood flood-color="#5d5d5d" flood-opacity="0.169"/><feComposite operator="in" in2="t"/><feComposite in="SourceGraphic"/></filter><filter id="u" x="73.452" y="444.552" width="575.407" height="220.982" filterUnits="userSpaceOnUse"><feOffset dy="9" input="SourceAlpha"/><feGaussianBlur stdDeviation="29.5" result="v"/><feFlood flood-color="#96b0b8" flood-opacity="0.2"/><feComposite operator="in" in2="v"/><feComposite in="SourceGraphic"/></filter></defs><g transform="translate(-1085.724 -2387.795)"><g transform="translate(1309.51 2702.654)"><path d="M407.427-74.719c33.672,30.832,29.615,102.435,41.38,186.005,11.765,83.368,39.148,178.5,5.477,243.815C420.408,420.213,325.276,455.71,252.05,433.6,179.028,411.694,127.912,332.383,29.737,267.068c-97.972-65.315-243-116.431-252.943-177.486C-233.348,28.324-108.4-42.873-10.426-73.7,87.749-104.537,158.946-94.8,230.346-95,301.949-95.206,373.552-105.348,407.427-74.719Z" fill="rgba(159,166,170,0.06)"/></g><g transform="translate(1149.672 2455)"><g transform="translate(0 0)"><g transform="translate(0 131.173)"><g transform="matrix(1, 0, 0, 1, -63.95, -198.38)" filter="url(#a)"><rect width="475.658" height="540.576" rx="9" transform="translate(604.52 198.38) rotate(90)" fill="#fff"/></g><g transform="translate(27.515 33.4)"><g transform="translate(0.485)"><g fill="#fff" stroke="#00b8de" stroke-width="2"><rect width="236.869" height="149.537" rx="6" stroke="none"/><rect x="1" y="1" width="234.869" height="147.537" rx="5" fill="none"/></g><text transform="translate(73 49.038)" fill="#00b8de" font-size="14" font-family="Roboto-Medium, Roboto" font-weight="500"><tspan x="0" y="0">Simple invoice</tspan></text><g transform="translate(32 67.27)"><text transform="translate(3.556 13)" fill="#0b0b0b" font-size="12" font-family="Roboto-Regular, Roboto"><tspan x="0" y="0">Request for payment from your </tspan></text><text transform="translate(0 30.004)" fill="#0b0b0b" font-size="12" font-family="Roboto-Regular, Roboto"><tspan x="0" y="0">customers in a few simple steps</tspan></text></g><g transform="translate(248)"><g fill="#fff" stroke="#9fa6aa" stroke-width="2"><rect width="236.869" height="149.537" rx="6" stroke="none"/><rect x="1" y="1" width="234.869" height="147.537" rx="5" fill="none"/></g><text transform="translate(55 49.038)" fill="#101010" font-size="14" font-family="Roboto-Medium, Roboto" font-weight="500"><tspan x="0" y="0">Professional invoice</tspan></text><g transform="translate(33 67.27)"><text transform="translate(2.671 13)" fill="#0b0b0b" font-size="12" font-family="Roboto-Regular, Roboto"><tspan x="0" y="0">List multiple items, set taxes &amp; </tspan></text><text transform="translate(0 30.004)" fill="#0b0b0b" font-size="12" font-family="Roboto-Regular, Roboto"><tspan x="0" y="0">discounts when you request for </tspan></text><text transform="translate(3.487 47.007)" fill="#0b0b0b" font-size="12" font-family="Roboto-Regular, Roboto"><tspan x="0" y="0">payment from your customers</tspan></text></g></g></g><g transform="translate(0 171.859)"><g transform="translate(0.001 0)"><text transform="translate(52.225 13)" fill="#0b0b0b" font-size="12" font-family="Roboto-Regular, Roboto"><tspan x="0" y="0">I want to send invoice to multiple customers</tspan></text><g transform="translate(0)"><path d="M22.436,18.955H9.728A9.228,9.228,0,0,1,3.2,3.2,9.167,9.167,0,0,1,9.728.5H22.436a9.228,9.228,0,0,1,6.525,15.753A9.167,9.167,0,0,1,22.436,18.955Z" transform="translate(-0.196 -0.196)" fill="#c6c6c6"/><path d="M9.531.607a8.924,8.924,0,0,0-6.31,15.234,8.866,8.866,0,0,0,6.31,2.614H22.239a8.924,8.924,0,0,0,6.31-15.234A8.865,8.865,0,0,0,22.239.607H9.531m0-.607H22.239a9.531,9.531,0,0,1,0,19.062H9.531A9.531,9.531,0,0,1,9.531,0Z" transform="translate(0 0)" fill="#c6c6c6"/><g transform="translate(1.363 1)" fill="#fff" stroke="#c6c6c6" stroke-width="1"><ellipse cx="8.198" cy="8.502" rx="8.198" ry="8.502" stroke="none"/><ellipse cx="8.198" cy="8.502" rx="7.698" ry="8.002" fill="none"/></g></g></g><g transform="translate(0 45.643)"><text transform="translate(0 12)" fill="#0b0b0b" font-size="11" font-family="Roboto-Medium, Roboto" font-weight="500"><tspan x="0" y="0">Customer email</tspan></text><g transform="translate(0.046 28.218)"><g fill="#fff" stroke="rgba(112,112,112,0.3)" stroke-width="0.5"><rect width="388.642" height="45.411" rx="5" stroke="none"/><rect x="0.25" y="0.25" width="388.142" height="44.911" rx="4.75" fill="none"/></g><text transform="translate(13.816 27.815)" fill="#0b0b0b" font-size="11" font-family="Roboto-Regular, Roboto" opacity="0.4"><tspan x="0" y="0">0.00</tspan></text></g></g><g transform="translate(0 134.913)"><text transform="translate(0 12)" fill="#0b0b0b" font-size="11" font-family="Roboto-Medium, Roboto" font-weight="500"><tspan x="0" y="0">Amount</tspan></text><g transform="translate(0 28.218)"><g fill="#fff" stroke="rgba(112,112,112,0.3)" stroke-width="0.5"><rect width="92.334" height="45.411" rx="5" stroke="none"/><rect x="0.25" y="0.25" width="91.834" height="44.911" rx="4.75" fill="none"/></g><text transform="translate(15.925 25.099)" fill="#0b0b0b" font-size="11" font-family="Roboto-Regular, Roboto"><tspan x="0" y="0">KES</tspan></text><path d="M15.959,8.59,11.642,12.9,7.326,8.59,6,9.916l5.643,5.643,5.643-5.643Z" transform="translate(58.581 10.388)" fill="#0b0b0b"/></g><g transform="translate(96.602 28.218)"><g fill="#fff" stroke="rgba(112,112,112,0.3)" stroke-width="0.5"><rect width="388.642" height="45.411" rx="5" stroke="none"/><rect x="0.25" y="0.25" width="388.142" height="44.911" rx="4.75" fill="none"/></g><text transform="translate(13.816 27.815)" fill="#0b0b0b" font-size="11" font-family="Roboto-Regular, Roboto" opacity="0.4"><tspan x="0" y="0">0.00</tspan></text></g></g></g></g></g><g transform="translate(78.944 560.185)"><g transform="matrix(1, 0, 0, 1, -142.89, -627.39)" filter="url(#c)"><rect width="367.401" height="93.52" rx="3" transform="translate(142.89 627.39)" fill="#fff"/></g><g transform="translate(34.615 13.967)"><g transform="translate(0 5.161)"><text transform="translate(0 50.788)" fill="#0b0b0b" font-size="10" font-family="Roboto-Medium, Roboto" font-weight="500"><tspan x="0" y="0">Received</tspan></text><g transform="translate(7.287 0)"><g transform="translate(0)"><path d="M11.1,282.98l4.836,1.466a.608.608,0,0,1-.031.1.942.942,0,0,1-.825.616,25.505,25.505,0,0,1-4.251.092.738.738,0,1,0-.092,1.473,25.993,25.993,0,0,0,4.577-.111,2.523,2.523,0,0,0,2.15-2.778.741.741,0,0,0-.523-.641l-5.415-1.64c-2.672-.807-5.606.684-5.729.746a.153.153,0,0,0-.043.025l-5.391,3.26A.74.74,0,0,0,.74,286.96a.789.789,0,0,0,.382-.105l5.366-3.234A7.111,7.111,0,0,1,11.1,282.98Z" transform="translate(0.001 -265.742)" fill="url(#e)"/><path d="M77.874,266.337a2.818,2.818,0,0,0-3.758-1.127c-1.9.844-5.908,2.772-5.951,2.793a.738.738,0,1,0,.64,1.327c.043-.018,4.029-1.943,5.908-2.772a1.392,1.392,0,0,1,1.374,0c.012.006.018.012.031.019l-10.046,7.363a3.357,3.357,0,0,1-2.49.6l-8.963-1.43a.761.761,0,0,0-.591.16l-2.267,1.891a.735.735,0,0,0-.092,1.041.749.749,0,0,0,.567.265.739.739,0,0,0,.474-.172l2.008-1.675L63.355,276a4.835,4.835,0,0,0,3.6-.868l10.719-7.848a.744.744,0,0,0,.2-.949Z" transform="translate(-48.321 -250.338)" fill="url(#e)"/><path d="M191.751,143.113a4.312,4.312,0,1,0-3.05-1.263,4.311,4.311,0,0,0,3.05,1.263Zm-2-6.308a2.811,2.811,0,1,1-.838,2,2.834,2.834,0,0,1,.838-2Z" transform="translate(-175.892 -127.964)" fill="url(#e)"/><path d="M288.3,35.225a3.364,3.364,0,1,0-2.378-.986A3.364,3.364,0,0,0,288.3,35.225Zm-1.331-4.694a1.878,1.878,0,1,1-.556,1.334,1.888,1.888,0,0,1,.556-1.334Z" transform="translate(-267.386 -28.497)" fill="url(#e)"/></g></g></g><line y2="65.586" transform="translate(85.929)" fill="none" stroke="#9fa6aa" stroke-width="1"/><g transform="translate(127.528 5.16)"><text transform="translate(0 50.313)" fill="#0b0b0b" font-size="10" font-family="Roboto-Medium, Roboto" font-weight="500"><tspan x="0" y="0">Pending</tspan></text><g transform="translate(7.897 0)"><g transform="translate(0)"><path d="M254.1,423.181c-.2.051-.412.1-.618.134a.994.994,0,1,0,.364,1.955c.243-.046.493-.1.737-.16a.994.994,0,0,0-.48-1.929Z" transform="translate(-239.239 -400.748)" fill="url(#e)"/><path d="M412.742,138.153a.994.994,0,1,0,1.887-.625c-.078-.237-.166-.475-.259-.707a.994.994,0,1,0-1.845.738C412.6,137.753,412.676,137.954,412.742,138.153Z" transform="translate(-390.531 -129.043)" fill="url(#e)"/><path d="M321.9,394.09c-.176.116-.356.228-.539.333a.994.994,0,1,0,.993,1.722c.217-.125.432-.258.641-.4a.994.994,0,0,0-1.093-1.659Z" transform="translate(-303.813 -373.074)" fill="url(#e)"/><path d="M429.622,208.266a.994.994,0,1,0-1.987.078c.008.21.01.425.006.632a.994.994,0,1,0,1.988.044Q429.637,208.645,429.622,208.266Z" transform="translate(-404.905 -196.38)" fill="url(#e)"/><path d="M378.78,344.271a.994.994,0,0,0-1.392.2c-.126.168-.259.334-.4.494a1,1,0,0,0,.112,1.4q.035.03.073.056a.994.994,0,0,0,1.329-.169c.163-.191.321-.389.472-.59A.994.994,0,0,0,378.78,344.271Z" transform="translate(-356.731 -325.868)" fill="url(#e)"/><path d="M415.27,279.4a.994.994,0,0,0-1.247.652c-.061.2-.132.4-.208.6a.994.994,0,1,0,1.858.708c.089-.234.172-.473.247-.711A1,1,0,0,0,415.27,279.4Z" transform="translate(-391.76 -264.59)" fill="url(#e)"/><path d="M10.527,24.263a10.263,10.263,0,0,1-2.551-.81c-.01,0-.018-.011-.028-.015-.191-.09-.381-.186-.565-.286h0a10.6,10.6,0,0,1-.989-.618A10.373,10.373,0,0,1,6.437,5.542l.036-.025a10.391,10.391,0,0,1,11.643-.095L17.34,6.544c-.216.312-.083.54.3.506l3.373-.3a.556.556,0,0,0,.5-.729l-.906-3.261c-.1-.364-.361-.41-.578-.1l-.776,1.125a12.277,12.277,0,0,0-9-1.913q-.477.083-.941.2H9.309l-.036.01a12.258,12.258,0,0,0-6.8,4.555c-.015.017-.029.033-.043.052-.056.076-.112.154-.167.231-.09.128-.178.258-.262.389-.01.016-.019.032-.028.047A12.256,12.256,0,0,0,.017,14.584q0,.013,0,.026c.011.25.031.5.061.751a.266.266,0,0,0,.008.047c.028.25.061.5.106.752a12.267,12.267,0,0,0,3.454,6.657l.013.013,0,0a12.526,12.526,0,0,0,1.584,1.323,12.257,12.257,0,0,0,4.929,2.065.994.994,0,1,0,.351-1.957Z" transform="translate(-0.004 -1.685)" fill="url(#e)"/><path d="M206.792,83.2a.8.8,0,0,0-.8.8V92.02l7.329,3.789a.8.8,0,1,0,.738-1.429L207.6,91.04V84A.8.8,0,0,0,206.792,83.2Z" transform="translate(-195.04 -78.864)" fill="url(#e)"/></g></g></g><line y2="65.586" transform="translate(208.599)" fill="none" stroke="#9fa6aa" stroke-width="1"/><g transform="translate(250.197 3.949)"><g transform="translate(12.145 0)"><path d="M23.073,20.663a5.373,5.373,0,0,0-2.711-1.7V2.9a2.9,2.9,0,0,0-2.9-2.9H6.542A2.64,2.64,0,0,0,5.362.279H5.356l-.006,0L5.283.319l-.05.028L5.173.382,5.118.417,5.067.451,5.006.494,4.96.527C4.939.542,4.918.559,4.9.575L4.858.607C4.837.625,4.816.643,4.8.661L4.759.7C4.739.715,4.718.735,4.7.756L4.659.789,4.587.865,4.568.886,3.008,2.641.668,5.274c-.026.029-.052.061-.076.09l-.019.024-.05.066L.486,5.5a.519.519,0,0,0-.03.043l-.041.061L.4,5.634c-.015.029-.032.055-.044.081L.343,5.73c-.017.03-.033.061-.049.09h0A2.637,2.637,0,0,0,0,7.029V24.943a2.9,2.9,0,0,0,2.9,2.9H15.1a5.365,5.365,0,0,0,7.968-7.179ZM5.04,2.092V5.321a.347.347,0,0,1-.346.346H1.861l1.9-2.133ZM2.9,26.692a1.747,1.747,0,0,1-1.745-1.745V7.032a1.493,1.493,0,0,1,.016-.208H4.692a1.5,1.5,0,0,0,1.5-1.5V1.2a1.484,1.484,0,0,1,.35-.043H17.463A1.747,1.747,0,0,1,19.209,2.9v15.89c-.072,0-.143,0-.214,0a5.372,5.372,0,0,0-5.366,5.366c0,.072,0,.143,0,.214v.058q0,.09.012.182v.036q.01.105.024.209a.4.4,0,0,0,.007.053c.008.056.016.112.026.168l.009.05c.013.069.026.137.042.2,0,.015.007.029.01.044.013.056.027.111.041.166l.015.056c.019.067.038.134.061.2a.077.077,0,0,0,.007.022c.019.061.04.121.061.178l.021.057q.032.084.066.168l.012.03c.027.061.055.126.084.188l.026.053c.024.05.049.1.075.149l.023.044.009.018H2.9Zm16.093,1.669a4.21,4.21,0,1,1,2.981-1.234,4.213,4.213,0,0,1-2.981,1.234Zm0,0" fill="#00425f"/><path d="M91.412,154.354h9.139a.577.577,0,1,0,0-1.154H91.412a.577.577,0,0,0,0,1.154Zm0,0" transform="translate(-85.599 -144.371)" fill="#00425f"/><path d="M91.412,227.906h9.139a.577.577,0,1,0,0-1.154H91.412a.577.577,0,0,0,0,1.154Zm0,0" transform="translate(-85.599 -213.682)" fill="#00425f"/><path d="M138.271,300.309h-6.832a.577.577,0,1,0,0,1.154h6.832a.577.577,0,1,0,0-1.154Zm0,0" transform="translate(-123.319 -282.998)" fill="#00425f"/><path d="M91.428,300.309a.576.576,0,1,0,.409.168A.576.576,0,0,0,91.428,300.309Zm0,0" transform="translate(-85.613 -282.998)" fill="#00425f"/><path d="M98,373.859H91.412a.577.577,0,0,0,0,1.154H98a.577.577,0,0,0,0-1.154Zm0,0" transform="translate(-85.599 -352.308)" fill="#00425f"/><path d="M296.082,381.512a.576.576,0,0,0-.815,0l-1.182,1.182-1.182-1.182a.576.576,0,1,0-.815.815l1.182,1.182-1.182,1.182a.576.576,0,0,0,.815.816l1.182-1.182,1.182,1.182a.577.577,0,0,0,.816-.816l-1.182-1.182,1.182-1.182A.576.576,0,0,0,296.082,381.512Zm0,0" transform="translate(-275.091 -359.361)" fill="#00425f"/></g><text transform="translate(0 52.691)" fill="#0b0b0b" font-size="10" font-family="Roboto-Medium, Roboto" font-weight="500"><tspan x="0" y="0">Cancelled</tspan></text></g></g></g><g transform="translate(1.818)"><g transform="translate(117.018 7.795)"><g transform="matrix(1, 0, 0, 1, -182.78, -75)" filter="url(#q)"><rect width="141.759" height="291.594" rx="9" transform="translate(474.38 75) rotate(90)" fill="#fff"/></g><path d="M1013.277,130.555a17.276,17.276,0,1,1,17.276-17.276A17.276,17.276,0,0,1,1013.277,130.555Zm0-31.674a14.4,14.4,0,1,0,14.4,14.4,14.4,14.4,0,0,0-14.4-14.4Zm-.115,20.635a1.179,1.179,0,0,1-.316.563,1.284,1.284,0,0,1-1.037.373,1.315,1.315,0,0,1-1.354-.943l-4.06-4.057a1.3,1.3,0,0,1,1.828-1.83l3.138,3.144,6.421-11.384a1.44,1.44,0,0,1,1.987-.554,1.513,1.513,0,0,1,.518,2.04Z" transform="translate(-867.565 -68.436)" fill="#3bb75e" fill-rule="evenodd"/><g transform="translate(40.292 71.754)"><text transform="translate(0 10)" fill="#0b0b0b" font-size="10" font-family="Roboto-Regular, Roboto"><tspan x="0" y="0">Your export is being processed and a link to </tspan></text><text transform="translate(24.936 24.575)" fill="#0b0b0b" font-size="10" font-family="Roboto-Regular, Roboto"><tspan x="0" y="0">the CSV will be sent to your email</tspan></text></g></g><g transform="matrix(1, 0, 0, 1, -65.77, -67.2)" filter="url(#s)"><path d="M3.3,0H41.532c1.825,0,3.3,1.14,3.3,2.551V189.5c0,1.407-1.479,2.551-3.3,2.551H3.3c-1.825,0-3.3-1.14-3.3-2.551V2.551C0,1.14,1.479,0,3.3,0Z" transform="translate(257.81 67.2) rotate(90)" fill="#00b8de"/></g><g transform="translate(45.532 15.182)"><text transform="translate(23.517 10)" fill="#fff" font-size="11" font-family="ProximaNova-Semibold, Proxima Nova" font-weight="600"><tspan x="0" y="0">New Invoice</tspan></text><g transform="translate(0 0.87)"><line y2="13.194" transform="translate(6.597)" stroke-width="4" stroke="#fff" stroke-linecap="round" stroke-linejoin="round" fill="none"/><line x2="13.194" transform="translate(0 6.597)" stroke-width="4" stroke="#fff" stroke-linecap="round" stroke-linejoin="round" fill="none"/></g></g></g><g transform="translate(98.004 456.847)"><g transform="matrix(1, 0, 0, 1, -161.95, -524.05)" filter="url(#u)"><rect width="43.982" height="398.407" rx="9" transform="translate(560.36 524.05) rotate(90)" fill="#fff"/></g><g transform="translate(41.282 10.321)"><text transform="translate(34.61 14.534)" fill="#3bb75e" font-size="11" font-family="Roboto-Regular, Roboto"><tspan x="0" y="0">This invoice has already been paid on Sep 2,2019</tspan></text><path d="M11.278,0A11.278,11.278,0,1,0,22.557,11.278,11.278,11.278,0,0,0,11.278,0Zm0,20.738a9.461,9.461,0,1,1,9.46-9.46,9.461,9.461,0,0,1-9.46,9.46Z" fill="#3bb75e"/><path d="M24.284,18.623l-5.508,6.168-2.016-2.257a.88.88,0,0,0-1.345,0,1.154,1.154,0,0,0,0,1.505l2.69,3.008a.88.88,0,0,0,1.345,0l6.18-6.923a1.157,1.157,0,0,0,0-1.506.881.881,0,0,0-1.346,0Z" transform="translate(-9.246 -11.558)" fill="#3bb75e"/></g></g></g></g></g></svg>