<svg xmlns="http://www.w3.org/2000/svg" width="33.696" height="33.906" viewBox="0 0 33.696 33.906"><g transform="translate(0 0)"><g transform="translate(0 0)"><path d="M31.351,4.9a15.033,15.033,0,0,0-21.237-.968,15.112,15.112,0,0,0-2.18,2.476A.515.515,0,1,0,8.776,7,14,14,0,1,1,29.688,25.376a13.9,13.9,0,0,1-4.521,2.771,2.472,2.472,0,0,0-.94-1.03l-1.282-.764A11.651,11.651,0,0,0,28.875,7.159a.515.515,0,0,0-.761.694,10.62,10.62,0,0,1-6.52,17.7l-1.271-.757a2.7,2.7,0,0,0-3.293.416l-.886.9a.251.251,0,0,1-.278.054,12.655,12.655,0,0,1-6.519-6.534l0-.007a.25.25,0,0,1,.044-.274l.9-.893a2.7,2.7,0,0,0,.414-3.292l-.948-1.588a10.616,10.616,0,0,1,3.361-6.4,10.506,10.506,0,0,1,6.432-2.752A10.672,10.672,0,0,1,26.187,6.19a.515.515,0,0,0,.574-.855A11.705,11.705,0,0,0,19.474,3.39a11.526,11.526,0,0,0-7.057,3.018,11.65,11.65,0,0,0-3.461,5.832l-.583-.976-.007-.011A2.5,2.5,0,0,0,8,10.8a2.465,2.465,0,0,0-.906-.574,13.954,13.954,0,0,1,.645-1.493.515.515,0,1,0-.92-.463,15,15,0,0,0-.768,1.817A2.465,2.465,0,0,0,4.5,10.8l-.63.619a7.786,7.786,0,0,0-1.7,8.457A24.518,24.518,0,0,0,13.487,32.338a.515.515,0,0,0,.478-.912A23.487,23.487,0,0,1,3.119,19.484a6.757,6.757,0,0,1,1.476-7.337l.629-.618a1.446,1.446,0,0,1,1.1-.418.513.513,0,0,0,.1.011h.013a1.453,1.453,0,0,1,.846.412,1.479,1.479,0,0,1,.216.265l2.32,3.888a1.67,1.67,0,0,1-.256,2.036l-.9.9a1.288,1.288,0,0,0-.252,1.422A13.683,13.683,0,0,0,15.453,27.1a1.287,1.287,0,0,0,1.426-.274l.884-.894a1.669,1.669,0,0,1,2.035-.257l1.414.842,0,0L23.7,28a1.449,1.449,0,0,1,.264,2.268l-.611.626a6.758,6.758,0,0,1-7.341,1.48.515.515,0,0,0-.389.954,7.788,7.788,0,0,0,8.462-1.709l.611-.625a2.472,2.472,0,0,0,.726-1.839A15.036,15.036,0,0,0,31.351,4.9Z" transform="translate(-1.585 0)"/></g></g><g transform="translate(13.311 10.669)"><g transform="translate(0)"><path d="M207.351,168.388a.342.342,0,0,0-.274-.151h-3.291v-.425a1.04,1.04,0,0,1,.375-.715,6.592,6.592,0,0,1,.907-.732q.532-.363,1.063-.771a3.86,3.86,0,0,0,.907-.994,2.293,2.293,0,0,0,.375-1.257,2.061,2.061,0,0,0-.7-1.613,2.627,2.627,0,0,0-3.313-.07,1.76,1.76,0,0,0-.677,1.427q0,.661.537.66a.725.725,0,0,0,.453-.133.387.387,0,0,0,.173-.311,1.041,1.041,0,0,1,.313-.822,1.186,1.186,0,0,1,.817-.278,1.133,1.133,0,0,1,.9.352,1.209,1.209,0,0,1,.308.821,1.5,1.5,0,0,1-.375.938,4.679,4.679,0,0,1-.912.86l-1.075.782a4.338,4.338,0,0,0-.9.872,1.612,1.612,0,0,0-.365.984V168.9a.327.327,0,0,0,.172.28.636.636,0,0,0,.35.112h3.958a.333.333,0,0,0,.272-.162.625.625,0,0,0,.117-.375A.575.575,0,0,0,207.351,168.388Z" transform="translate(-202.599 -161.106)"/></g></g><g transform="translate(18.226 10.669)"><path d="M282.009,166.51a.334.334,0,0,0-.3-.166h-.548V164.79a.321.321,0,0,0-.174-.293.819.819,0,0,0-.42-.1q-.593,0-.593.394v1.554h-1.645l2.306-4.6a.434.434,0,0,0,.056-.179.387.387,0,0,0-.2-.325.707.707,0,0,0-.392-.134.547.547,0,0,0-.515.324l-2.709,5.333a.511.511,0,0,0-.067.246.424.424,0,0,0,.118.316.4.4,0,0,0,.3.116h2.754v1.453a.325.325,0,0,0,.173.287.784.784,0,0,0,.42.107.793.793,0,0,0,.414-.107.324.324,0,0,0,.179-.287v-1.453h.548a.347.347,0,0,0,.28-.172.625.625,0,0,0,.123-.371A.7.7,0,0,0,282.009,166.51Z" transform="translate(-276.809 -161.105)"/></g></svg>