<svg id="Group" xmlns="http://www.w3.org/2000/svg" width="20.485" height="20.484" viewBox="0 0 20.485 20.484">
  <g id="Group_395" data-name="Group 395">
    <path id="Path_309" data-name="Path 309" d="M10.242,0A10.242,10.242,0,1,0,20.485,10.242,10.254,10.254,0,0,0,10.242,0Zm0,18.834a8.592,8.592,0,1,1,8.591-8.591A8.6,8.6,0,0,1,10.242,18.834Z" transform="translate(0 0)" fill="#3bb75e"/>
    <path id="Path_310" data-name="Path 310" d="M23.08,18.555,18.3,23.336,16.55,21.586a.825.825,0,1,0-1.167,1.167l2.333,2.333a.824.824,0,0,0,1.167,0l5.364-5.364a.825.825,0,0,0-1.167-1.167Z" transform="translate(-9.573 -11.578)" fill="#3bb75e"/>
  </g>
</svg>
