<svg xmlns="http://www.w3.org/2000/svg" width="33.878" height="33.894" viewBox="0 0 33.878 33.894"><path d="M220.61,52.5a2.365,2.365,0,1,0,2.365-2.365A2.365,2.365,0,0,0,220.61,52.5Zm3.738,0a1.374,1.374,0,1,1-1.374-1.374A1.374,1.374,0,0,1,224.348,52.5Z" transform="translate(-206.036 -46.822)" fill="#00425f"/><path d="M33.5,30.046H31.486V28.435a.5.5,0,0,0-.458-.494V18.314a.5.5,0,0,0-.991,0v9.626H27.25V14.278h2.785v1.759a.5.5,0,1,0,.991,0V14.276a.5.5,0,0,0,.458-.494V10.168h.224a.888.888,0,0,0,.887-.887V6.745a.883.883,0,0,0-.558-.824L22.411,2.072a.5.5,0,0,0-.368.921L31.6,6.812V9.176H2.5V6.813L17.052,1l2.865,1.146a.5.5,0,1,0,.368-.921L17.381.062a.883.883,0,0,0-.658,0L2.067,5.918a.883.883,0,0,0-.558.827V9.281a.888.888,0,0,0,.887.887h.222v1.38a.5.5,0,0,0-.017.125V13.78a.5.5,0,0,0,.458.494V27.941a.5.5,0,0,0-.458.494v1.611H.609a.5.5,0,0,0-.5.5V33.4a.5.5,0,0,0,.5.5H33.5a.5.5,0,0,0,.5-.5V30.542a.5.5,0,0,0-.5-.5Zm-3-1.116v1.116H26.792V28.931Zm0-15.644H26.792V12.171h3.7ZM3.609,10.168H30.494V11.18H3.609Zm-.017,2h3.7v1.116h-3.7Zm3.244,2.107V27.939H4.05V14.278ZM3.592,28.931h3.7v1.116h-3.7ZM33,32.9H1.1V31.038H9.882a.5.5,0,1,0,0-.991H8.287V28.435a.5.5,0,0,0-.458-.494V14.276a.5.5,0,0,0,.458-.494V12.171H25.8v1.611a.5.5,0,0,0,.458.494V27.941a.5.5,0,0,0-.458.494v1.611H20.536V22.988a3.484,3.484,0,1,0-6.969,0v7.058H12.16a.5.5,0,1,0,0,.991H33ZM19.545,22.989v7.034H14.559V22.989a2.493,2.493,0,1,1,4.986,0Z" transform="translate(-0.113 0.002)" fill="#00425f"/><path d="M171.86,207.449a.549.549,0,0,0,.548-.588.261.261,0,0,1,.01-.089.219.219,0,0,1,.214-.152h0a.55.55,0,0,0,.55-.549v-2.227a.549.549,0,0,0-.55-.549h0a.216.216,0,0,1-.2-.111.243.243,0,0,1-.028-.13.549.549,0,0,0-.548-.589H161.83a.549.549,0,0,0-.548.588.243.243,0,0,1-.028.13.216.216,0,0,1-.2.111h0a.55.55,0,0,0-.55.549v2.227a.55.55,0,0,0,.55.549h0a.219.219,0,0,1,.214.152.26.26,0,0,1,.01.089.549.549,0,0,0,.548.589ZM161.5,204.2a1.191,1.191,0,0,0,.648-.591,1.33,1.33,0,0,0,.062-.156h9.268a1.325,1.325,0,0,0,.062.156,1.19,1.19,0,0,0,.648.591v1.506a1.2,1.2,0,0,0-.713.75h-9.263a1.2,1.2,0,0,0-.713-.75Z" transform="translate(-149.906 -189.081)" fill="#00425f"/></svg>