<svg xmlns="http://www.w3.org/2000/svg" width="35.616" height="39.142" viewBox="0 0 35.616 39.142"><path d="M224.9,287.771a2.488,2.488,0,1,0-2.488-2.488A2.488,2.488,0,0,0,224.9,287.771Zm0-3.828a1.336,1.336,0,1,1-1.336,1.336,1.336,1.336,0,0,1,1.336-1.336Z" transform="translate(-207.086 -261.074)" fill="#00425f"/><path d="M58,33.869a.576.576,0,0,0,.576-.576V29.847a.576.576,0,0,0-.293-.5l-8.968-5.075V22.444a.576.576,0,0,0-.284-.5l-1.482-.883V18.41a.576.576,0,0,0-1.152,0v1.968L41.06,17.2a.576.576,0,0,0-.59,0l-5.336,3.18V12.56H46.4V16.1a.576.576,0,1,0,1.152,0V11.981a.583.583,0,0,0-.125-.359L41.342,4V2.556h.689a.576.576,0,1,0,0-1.152h-.689V.576a.576.576,0,0,0-1.152,0V1.4H39.5a.576.576,0,0,0,0,1.152h.689V4l-6.081,7.629a.583.583,0,0,0-.125.359v9.082l-1.482.881a.576.576,0,0,0-.284.5v1.828l-8.968,5.071a.576.576,0,0,0-.293.5v8.72a.576.576,0,0,0,.576.576H58a.576.576,0,0,0,.576-.576V35.6a.576.576,0,1,0-1.152,0v2.391H49.311V25.594l8.108,4.585v3.114a.576.576,0,0,0,.576.576ZM40.765,5.124l5.01,6.284H35.755ZM32.8,30.462a.576.576,0,0,0-.576.576v6.948H24.111V30.18l8.108-4.586v3.141a.576.576,0,0,0,1.152,0V24.6h0V22.771l7.394-4.409,7.394,4.407v1.826h0V37.988H44.592V32.352a3.828,3.828,0,1,0-7.657,0v5.636H33.371V31.041a.576.576,0,0,0-.576-.579ZM43.44,37.988H38.088V32.351a2.675,2.675,0,1,1,5.35,0v5.636Z" transform="translate(-22.956 0.001)" fill="#00425f"/></svg>