<svg xmlns="http://www.w3.org/2000/svg" width="20.485" height="20.484" viewBox="0 0 20.485 20.484">
  <g id="close" transform="translate(-402 -1859)">
    <g id="Group_647" data-name="Group 647" transform="translate(402 1859)">
      <path id="Path_309" data-name="Path 309" d="M10.242,0A10.242,10.242,0,1,0,20.485,10.242,10.254,10.254,0,0,0,10.242,0Zm0,18.834a8.592,8.592,0,1,1,8.591-8.591A8.6,8.6,0,0,1,10.242,18.834Z" transform="translate(0 0)" fill="rgba(59,183,94,0)"/>
    </g>
    <g id="close-2" data-name="close" transform="translate(407 1863.999)">
      <path id="Path_1007" data-name="Path 1007" d="M6.372,5.415l4.258-4.258A.677.677,0,0,0,9.673.2L5.415,4.458,1.156.2A.677.677,0,1,0,.2,1.157L4.457,5.415.2,9.674a.677.677,0,1,0,.958.957L5.415,6.373l4.258,4.258a.677.677,0,1,0,.958-.958Z" fill="#ec4847"/>
    </g>
  </g>
</svg>
