<svg xmlns="http://www.w3.org/2000/svg" width="33.714" height="34.715" viewBox="0 0 33.714 34.715"><g transform="translate(0 0)"><g transform="translate(0 0)"><path d="M29.3,13.428l-.613.8a11.108,11.108,0,0,1,3.07,13.1A10.512,10.512,0,0,1,20.125,33.49,10.8,10.8,0,0,1,11.564,23.3v-.009c-.01-.162-.015-.33-.015-.5a11.034,11.034,0,0,1,.308-2.6,10.689,10.689,0,0,1,7.754-7.982,10.128,10.128,0,0,1,2.524-.317h.03v.031h.714a10.355,10.355,0,0,1,4.8,1.583l.521-.871a11.335,11.335,0,0,0-5.087-1.719A11.875,11.875,0,0,0,15.554.722,11.339,11.339,0,0,0,3.391,3.491a12.158,12.158,0,0,0,.179,17.03l.444.458.02-.021A11.388,11.388,0,0,0,10.6,23.8a11.79,11.79,0,0,0,9.626,10.743,11.512,11.512,0,0,0,12.5-6.933A12.149,12.149,0,0,0,29.3,13.428Zm-7.191-2.56a11.168,11.168,0,0,0-2.162.215,8.7,8.7,0,0,0-2.085-4.91l1.543-1.588a10.994,10.994,0,0,1,2.7,6.283ZM12.077,1.035a10.346,10.346,0,0,1,6.629,2.827L17.164,5.449a8.2,8.2,0,0,0-5.087-2.174Zm-.994,0V3.275A8.2,8.2,0,0,0,6,5.449L4.454,3.862a10.346,10.346,0,0,1,6.629-2.827ZM3.751,4.585,5.293,6.173a8.7,8.7,0,0,0-2.111,5.238H1.005A10.981,10.981,0,0,1,3.751,4.585Zm.261,14.949a11.056,11.056,0,0,1-3.006-7.1H3.182a8.791,8.791,0,0,0,2.365,5.521Zm6.542,3.238a10.411,10.411,0,0,1-5.813-2.54l1.54-1.586A8.246,8.246,0,0,0,9.9,20.411l.2-1a7.5,7.5,0,0,1-5.62-5.286,7.794,7.794,0,0,1,1.862-7.6,7.263,7.263,0,0,1,7.809-1.764,7.609,7.609,0,0,1,4.827,6.563,11.78,11.78,0,0,0-8.085,8.622,12.069,12.069,0,0,0-.334,2.827Z" transform="translate(0 0.003)" fill="#00425f"/><path d="M298.145,272.677h.575V273.8h1.023v-1.118h.575a1.6,1.6,0,0,0,1.6-1.6v-1.087a1.6,1.6,0,0,0-1.6-1.6h-2.174a.576.576,0,0,1-.575-.575v-1.087a.576.576,0,0,1,.575-.575h2.174a.576.576,0,0,1,.575.575v1.087h1.023v-1.087a1.6,1.6,0,0,0-1.6-1.6h-.575v-1.118H298.72v1.117h-.575a1.6,1.6,0,0,0-1.6,1.6v1.087a1.6,1.6,0,0,0,1.6,1.6h2.174a.576.576,0,0,1,.575.575v1.087a.576.576,0,0,1-.575.575h-2.174a.576.576,0,0,1-.575-.575v-1.087h-1.023v1.087a1.6,1.6,0,0,0,1.6,1.6Z" transform="translate(-277.122 -246.111)" fill="#00425f"/><path d="M200.366,209.572a9.206,9.206,0,1,0,9.206-9.206A9.206,9.206,0,0,0,200.366,209.572Zm17.389,0a8.183,8.183,0,1,1-8.183-8.184,8.183,8.183,0,0,1,8.183,8.184Z" transform="translate(-187.78 -186.778)" fill="#00425f"/><rect width="1.087" height="1.023" transform="translate(26.859 22.282)" fill="#00425f"/><rect width="1.087" height="1.023" transform="translate(16.315 22.282)" fill="#00425f"/><path d="M96.177,101.579H97.2a4.381,4.381,0,0,1,4.381-4.381V96.176A5.408,5.408,0,0,0,96.177,101.579Z" transform="translate(-89.878 -89.652)" fill="#00425f"/><rect width="1.023" height="1.087" transform="translate(6.327 13.013)" fill="#00425f"/></g></g></svg>