<svg xmlns="http://www.w3.org/2000/svg" width="35.02" height="34.99" viewBox="0 0 35.02 34.99"><g transform="translate(18.862 0)"><g transform="translate(0 0)"><path d="M289.79.214h-11.9a2.133,2.133,0,0,0-2.131,2.131V10.47a2.133,2.133,0,0,0,2.131,2.131h.412V14.47a.865.865,0,0,0,1.477.612l2.48-2.48h7.527a2.133,2.133,0,0,0,2.131-2.131V2.345A2.134,2.134,0,0,0,289.79.214Zm0,11.288h-7.541a1.058,1.058,0,0,0-.753.312l-2.09,2.09V12.566a1.066,1.066,0,0,0-1.065-1.065h-.448a1.032,1.032,0,0,1-1.031-1.031V2.345a1.032,1.032,0,0,1,1.031-1.031h11.9a1.032,1.032,0,0,1,1.031,1.031v8.125h0A1.032,1.032,0,0,1,289.79,11.5Z" transform="translate(-275.763 -0.214)"/></g></g><g transform="translate(26.27 8.258)"><path d="M385.33,121.163a.7.7,0,0,0-.515-.218.719.719,0,0,0-.519.213.713.713,0,0,0,0,1.026.709.709,0,0,0,.52.218.694.694,0,0,0,.515-.218.719.719,0,0,0,0-1.022Z" transform="translate(-384.077 -120.945)"/></g><g transform="translate(25.277 2.743)"><path d="M372.875,40.761a2.269,2.269,0,0,0-1.457-.445,2.093,2.093,0,0,0-1.372.407,1.136,1.136,0,0,0-.492.861.483.483,0,0,0,.174.4.6.6,0,0,0,.391.142.4.4,0,0,0,.283-.1.852.852,0,0,0,.179-.231.6.6,0,0,1,.273-.231,1.169,1.169,0,0,1,.528-.1,1.055,1.055,0,0,1,.613.163.537.537,0,0,1,.236.471.671.671,0,0,1-.1.349,1.34,1.34,0,0,1-.189.256,3.68,3.68,0,0,1-.3.252q-.218.168-.246.2a1.771,1.771,0,0,0-.634,1.416.78.78,0,0,0,.113.494.521.521,0,0,0,.407.13q.558,0,.558-.388a3.092,3.092,0,0,1,.024-.449A.979.979,0,0,1,372,44a1.58,1.58,0,0,1,.365-.393,2.261,2.261,0,0,0,1.068-1.731A1.371,1.371,0,0,0,372.875,40.761Z" transform="translate(-369.555 -40.316)"/></g><g transform="translate(0 8.197)"><path d="M18.963,139.245l-2.553-.5a2.217,2.217,0,0,1-.82-.335.538.538,0,0,0-.055-.037,1.441,1.441,0,0,1-.638-1.154v-1.061a5.775,5.775,0,0,0,.977-.965,2.312,2.312,0,0,0,2.262-2.23,1.5,1.5,0,0,0,1.022-1.416v-2.806a1.5,1.5,0,0,0-.968-1.4.55.55,0,0,0,.329-.654,9.813,9.813,0,0,0-2.512-4.592,6.68,6.68,0,0,0-4.337-2.041,7.029,7.029,0,0,0-4.558,1.66,7.5,7.5,0,0,0-1.569,1.893v0l0,.006,0,0h0a6.628,6.628,0,0,0-1,3.74,1.5,1.5,0,0,0-.912,1.376v2.806a1.5,1.5,0,0,0,1.494,1.494h.721a5.742,5.742,0,0,0,2.244,3.265v.914a1.442,1.442,0,0,1-.639,1.154.551.551,0,0,0-.055.037,2.216,2.216,0,0,1-.82.335l-2.553.5A4.611,4.611,0,0,0,0,143.555V146.3a.55.55,0,0,0,.55.55H22.43a.55.55,0,0,0,.55-.55v-2.744A4.611,4.611,0,0,0,18.963,139.245Zm-2.223-5.568a5.668,5.668,0,0,0,.2-.636h.084A1.2,1.2,0,0,1,16.74,133.677Zm1.318-4.936v2.806a.394.394,0,0,1-.394.394h-.546v-3.594h.546A.394.394,0,0,1,18.058,128.741ZM7.824,122.556a6.018,6.018,0,0,1,3.789-1.4,5.616,5.616,0,0,1,3.629,1.733,8.742,8.742,0,0,1,2.215,4.088.547.547,0,0,0,.169.27h-.53a.549.549,0,0,0-.823-.307l-.006,0a6.458,6.458,0,0,1-2.738.624,8.127,8.127,0,0,1-5.084-1.846L6.7,123.84A6.184,6.184,0,0,1,7.824,122.556Zm-2.159,9.08v.305H5.118a.394.394,0,0,1-.394-.394v-2.806a.394.394,0,0,1,.394-.394h.546Zm.423-4.767a.547.547,0,0,0-.193.088c-.087.037-.174.074-.263.107a5.5,5.5,0,0,1,.459-2.137,11.232,11.232,0,0,0,1.143,1.21,6.127,6.127,0,0,1-.914.616C6.243,126.793,6.166,126.831,6.088,126.869Zm.677,4.767V127.76l.076-.039a7.421,7.421,0,0,0,1.26-.875,9.153,9.153,0,0,0,5.427,1.822,8.839,8.839,0,0,0,2.49-.414v3.382a4.6,4.6,0,0,1-.71,2.459H11.926a.55.55,0,0,0,0,1.1h2.417a4.624,4.624,0,0,1-7.579-3.559ZM21.88,145.749H18.838v-.934a.55.55,0,1,0-1.1,0v.934H5.246v-.934a.55.55,0,1,0-1.1,0v.934H1.1v-2.194a3.532,3.532,0,0,1,3.128-3.23l2.553-.5a3.4,3.4,0,0,0,.9-.308,6.288,6.288,0,0,0,1.059.656.55.55,0,1,0,.483-.988,5.159,5.159,0,0,1-.64-.372,2.44,2.44,0,0,0,.6-1.592v-.3a5.714,5.714,0,0,0,4.614-.088v.389a2.44,2.44,0,0,0,.6,1.592,5.172,5.172,0,0,1-2.908.9,5.254,5.254,0,0,1-.633-.038.55.55,0,1,0-.133,1.092,6.345,6.345,0,0,0,.766.046,6.271,6.271,0,0,0,3.81-1.291,3.4,3.4,0,0,0,.9.309l2.553.5a3.533,3.533,0,0,1,3.128,3.23v2.194Z" transform="translate(0 -120.055)"/><path d="M139.411,302.243a2.606,2.606,0,0,0,1.849-.765.513.513,0,1,0-.725-.725,1.59,1.59,0,0,1-2.247,0,.513.513,0,0,0-.726.725A2.606,2.606,0,0,0,139.411,302.243Z" transform="translate(-128.014 -288.253)"/></g><g transform="translate(8.825 17.052)"><ellipse cx="0.513" cy="0.513" rx="0.513" ry="0.513"/></g><g transform="translate(12.727 17.052)"><ellipse cx="0.513" cy="0.513" rx="0.513" ry="0.513"/></g></svg>