<svg xmlns="http://www.w3.org/2000/svg" width="31.812" height="31.811" viewBox="0 0 31.812 31.811"><g transform="translate(0 0)"><g transform="translate(0 0)"><path d="M31.806,12.166a.5.5,0,0,0-.022-.108.53.53,0,0,0-.03-.091.476.476,0,0,0-.053-.081.5.5,0,0,0-.071-.082c-.009-.007-.012-.018-.021-.025l-5.1-3.96v-4.1A1.591,1.591,0,0,0,24.92,2.123H19.174L16.873.337a1.572,1.572,0,0,0-1.934,0l-2.3,1.786H6.892A1.591,1.591,0,0,0,5.3,3.714v4.1L.2,11.779c-.009.007-.013.018-.021.025a.5.5,0,0,0-.071.082.473.473,0,0,0-.053.081.523.523,0,0,0-.03.091.5.5,0,0,0-.022.106c0,.011-.006.021-.006.032V30.225a1.573,1.573,0,0,0,.311.936s0,.011.007.015.012.009.017.015a1.583,1.583,0,0,0,1.253.625H30.222a1.583,1.583,0,0,0,1.258-.628c0-.005.011-.007.014-.012s0-.01.007-.015a1.573,1.573,0,0,0,.311-.936V12.2C31.813,12.186,31.807,12.177,31.806,12.166ZM15.588,1.174a.508.508,0,0,1,.633,0l1.223.95H14.368ZM1.724,30.755,15.588,19.986a.509.509,0,0,1,.633,0L30.088,30.755Zm29.029-.827L16.873,19.149a1.573,1.573,0,0,0-1.934,0L1.06,29.929V13.005l8.689,6.747a.53.53,0,1,0,.65-.838L1.571,12.06l3.73-2.9v4.1a.53.53,0,1,0,1.06,0V3.714a.53.53,0,0,1,.53-.53H24.92a.53.53,0,0,1,.53.53v9.544a.53.53,0,1,0,1.06,0v-4.1l3.73,2.9L21.4,18.926a.53.53,0,1,0,.65.838l8.7-6.759V29.929Z" transform="translate(-0.001 -0.004)"/><path d="M166.3,76.721V74.6a6.363,6.363,0,1,0-6.363,6.363.53.53,0,0,0,0-1.06,5.3,5.3,0,1,1,5.3-5.3v2.121a1.06,1.06,0,0,1-2.121,0V74.6a.53.53,0,1,0-1.06,0,2.121,2.121,0,1,1-2.121-2.121.53.53,0,1,0,0-1.06,3.181,3.181,0,1,0,2.144,5.525,2.115,2.115,0,0,0,4.219-.223Z" transform="translate(-144.032 -63.997)"/></g></g></svg>