<svg xmlns="http://www.w3.org/2000/svg" width="34.83" height="34.328" viewBox="0 0 34.83 34.328"><path d="M295.85,355.074a.511.511,0,0,0,.51-.51v-5.488a.511.511,0,0,0-.51-.51h-2.766a.51.51,0,0,0-.51.51v5.488a.51.51,0,0,0,.51.51Zm-2.257-5.488h1.746v4.467h-1.746Zm0,0" transform="translate(-282.313 -336.572)" fill="#00425f"/><path d="M444.135,355.074H446.9a.511.511,0,0,0,.51-.51v-5.488a.511.511,0,0,0-.51-.51h-2.766a.51.51,0,0,0-.51.51v5.488a.51.51,0,0,0,.51.51Zm.51-5.488h1.745v4.467h-1.746Zm0,0" transform="translate(-428.103 -336.572)" fill="#00425f"/><path d="M92.539,581.935a.51.51,0,0,0,.51-.51V575.94a.51.51,0,0,0-.51-.51H89.772a.51.51,0,0,0-.51.51v5.487a.51.51,0,0,0,.51.51Zm-2.258-5.487h1.747v4.467H90.281Zm0,0" transform="translate(-86.083 -555.672)" fill="#00425f"/><path d="M798.479,581.935h2.766a.51.51,0,0,0,.51-.51V575.94a.51.51,0,0,0-.51-.51h-2.766a.51.51,0,0,0-.51.51v5.487a.51.51,0,0,0,.51.508Zm.51-5.487h1.746v4.467h-1.746Zm0,0" transform="translate(-770.106 -555.672)" fill="#00425f"/><path d="M595.171,355.074h2.766a.511.511,0,0,0,.51-.51v-5.488a.511.511,0,0,0-.51-.51h-2.766a.511.511,0,0,0-.51.51v5.488a.511.511,0,0,0,.51.51Zm.51-5.488h1.747v4.467H595.68Zm0,0" transform="translate(-573.879 -336.572)" fill="#00425f"/><path d="M439.974,53.538a.51.51,0,0,0,1.021,0V52.483h1.054a.51.51,0,0,0,0-1.021h-1.054V50.409a.51.51,0,1,0-1.021,0v1.054H438.92a.51.51,0,1,0,0,1.021h1.054Zm0,0" transform="translate(-423.07 -48.091)" fill="#00425f"/><path d="M32.3,12.62a.507.507,0,0,0,.51-.5V10.306a.507.507,0,0,0-.51-.5h-3.1a.5.5,0,0,0,0,1.005h2.583v.8H24.42v-.8h2.245a.5.5,0,0,0,0-1.005H24.42V7.446H25.2a.506.506,0,0,0,.51-.5V5.133a.507.507,0,0,0-.51-.5H20.654V-1.515a.507.507,0,0,0-.51-.5h-9.5a.507.507,0,0,0-.51.5V4.631H5.586a.506.506,0,0,0-.51.5V6.943a.506.506,0,0,0,.51.5H6.37V9.8H-1.509a.507.507,0,0,0-.51.5v1.81a.507.507,0,0,0,.51.5h.227v3.312a.507.507,0,0,0,.51.5.507.507,0,0,0,.51-.5V12.619H6.369V29.4H-.262V18.425a.507.507,0,0,0-.51-.5.507.507,0,0,0-.51.5V29.4h-.227a.507.507,0,0,0-.51.5v1.9a.507.507,0,0,0,.51.5H32.3a.507.507,0,0,0,.51-.5v-1.9a.507.507,0,0,0-.51-.5h-.227V12.62ZM6.1,5.636h7.929a.5.5,0,0,0,0-1.005H11.158V-1.013h8.478V4.631H16.915a.5.5,0,1,0,0,1.005h7.78v.8H6.1ZM-1,10.81H6.369v.8H-1ZM7.39,7.446H23.4V29.4H20.464V21.448a.507.507,0,0,0-.51-.5H10.838a.507.507,0,0,0-.51.5V29.4H7.39ZM11.348,29.4V21.951h3.534V29.4Zm4.558-7.452h3.537V29.4H15.906ZM31.79,31.3H-1v-.9H31.79Zm-.736-1.9H24.42V12.62h6.633V29.4Zm0,0" transform="translate(2.019 2.018)" fill="#00425f"/></svg>