<svg xmlns="http://www.w3.org/2000/svg" width="35.968" height="34.968" viewBox="0 0 35.968 34.968"><g transform="translate(4.641 30.87)"><g transform="translate(0 0)"><path d="M69.168,452.2a.684.684,0,1,0,.2.484.684.684,0,0,0-.2-.484Z" transform="translate(-68 -452.001)" fill="#00425f"/></g></g><g transform="translate(31.897 12.293)"><g transform="translate(0 0)"><path d="M453.618,180.208a.684.684,0,1,0,.2.483A.684.684,0,0,0,453.618,180.208Z" transform="translate(-452.45 -180.007)" fill="#00425f"/></g></g><g transform="translate(0)"><path d="M35.768.2a.714.714,0,0,0-.5-.2H17.99a.694.694,0,0,0-.7.684V2.637L10.632,4.371a.683.683,0,0,0-.5.837l3.449,12.524-2.986,2.9a2.123,2.123,0,0,0-1.738-.9H2.114A2.083,2.083,0,0,0,.007,21.787V32.919a2.083,2.083,0,0,0,2.107,2.048H8.858A2.1,2.1,0,0,0,10.9,33.412l.836.708a3.6,3.6,0,0,0,2.323.848H35.271a.694.694,0,0,0,.7-.684V.684A.675.675,0,0,0,35.768.2ZM9.56,32.919a.694.694,0,0,1-.7.684H2.114a.694.694,0,0,1-.7-.684V21.787a.694.694,0,0,1,.7-.684H4.783v7.871a.7.7,0,0,0,1.408,0V21.1H8.858a.694.694,0,0,1,.7.684V32.919Zm2.112-27.4,5.617-1.463V6.584l-.471.123a.683.683,0,0,0-.5.836A1.836,1.836,0,0,1,14.984,9.8a.683.683,0,0,0-.5.838l2.738,9.855H15.818l-.73-2.762a.676.676,0,0,0-.118-.24Zm5.617,4.2v5.763l-1.281-4.612a3.257,3.257,0,0,0,1.28-1.151ZM27.38,33.6H14.065a2.17,2.17,0,0,1-1.4-.511l-1.7-1.437V22.211l3.066-2.986.556,2.116a.7.7,0,0,0,.681.514H29.081a.957.957,0,0,1,0,1.912H22a.685.685,0,1,0,0,1.369h9.275a.994.994,0,0,1,.907.459.935.935,0,0,1,0,.994.994.994,0,0,1-.907.459H22a.685.685,0,1,0,0,1.369h7.772a.994.994,0,0,1,.907.459.935.935,0,0,1,0,.994.994.994,0,0,1-.907.459H22A.685.685,0,1,0,22,31.7H27.38a.994.994,0,0,1,.907.459.935.935,0,0,1,0,.994.994.994,0,0,1-.907.459Zm7.189,0H29.556a2.255,2.255,0,0,0,0-1.912h.22a2.4,2.4,0,0,0,2.032-1.1,2.265,2.265,0,0,0,.1-2.26,2.36,2.36,0,0,0,1.627-1.482,2.267,2.267,0,0,0-.342-2.142V16.05a.7.7,0,0,0-1.408,0v7.772a2.454,2.454,0,0,0-.512-.054h-.018a2.265,2.265,0,0,0-.169-2.216,2.4,2.4,0,0,0-2.007-1.062H27.949a3.249,3.249,0,0,0,1.973-3.661,3.382,3.382,0,0,0-6.588,0,3.249,3.249,0,0,0,1.973,3.661H21.473V7.5a3.264,3.264,0,0,0,2.519-2.449h5.284A3.264,3.264,0,0,0,31.794,7.5V9.625a.7.7,0,0,0,1.408,0V6.893a.694.694,0,0,0-.7-.684A1.868,1.868,0,0,1,30.607,4.37a.694.694,0,0,0-.7-.684H23.361a.694.694,0,0,0-.7.684,1.868,1.868,0,0,1-1.888,1.84.694.694,0,0,0-.7.684V20.489H18.693V1.369H34.567ZM26.631,19.386a1.9,1.9,0,1,1,1.957-1.9A1.93,1.93,0,0,1,26.631,19.386Z" transform="translate(-0.007)" fill="#00425f"/></g></svg>