<svg xmlns="http://www.w3.org/2000/svg" width="35.512" height="29.952" viewBox="0 0 35.512 29.952"><path d="M33.324,40.081H2.188A2.191,2.191,0,0,0,0,42.269V63.4a2.191,2.191,0,0,0,2.188,2.188h10.53l-.426,3.408H10.528a.52.52,0,0,0,0,1.04H24.984a.52.52,0,0,0,0-1.04H23.219l-.426-3.408h10.53A2.191,2.191,0,0,0,35.512,63.4V42.269a2.191,2.191,0,0,0-2.188-2.188ZM13.341,68.993l.426-3.408h1.915l.188.751a1.944,1.944,0,0,0,3.773,0l.187-.751h1.915l.426,3.408Zm3.413-3.408h2l-.125.5a.9.9,0,0,1-1.754,0ZM34.471,63.4h0a1.149,1.149,0,0,1-1.148,1.148H2.188A1.149,1.149,0,0,1,1.04,63.4V42.269a1.149,1.149,0,0,1,1.148-1.148H33.324a1.149,1.149,0,0,1,1.148,1.148Z" transform="translate(0 -40.081)" fill="#00425f"/><g transform="translate(2.224 2.224)"><g transform="translate(0)"><path d="M59.272,72.146H32.584a.52.52,0,0,0-.52.52V92.682a.52.52,0,0,0,.52.52H33.7a.52.52,0,1,0,0-1.04H33.1V73.186H59.272a.52.52,0,1,0,0-1.04Z" transform="translate(-32.064 -72.146)" fill="#00425f"/></g></g><g transform="translate(5.56 2.224)"><path d="M107.37,72.146h-1.112a.52.52,0,1,0,0,1.04h.592V92.162H80.682a.52.52,0,1,0,0,1.04H107.37a.52.52,0,0,0,.52-.52V72.666a.52.52,0,0,0-.52-.52Z" transform="translate(-80.162 -72.146)" fill="#00425f"/></g><g transform="translate(9.464 5.569)"><g transform="translate(0 0)"><path d="M151.67,122.673a.52.52,0,0,0-.386-.2l-12.231-.556h-.029a1.078,1.078,0,0,0-.433-.583l-1.5-1a.52.52,0,0,0-.577.865l1.5,1a.036.036,0,0,1,.015.02l1.908,6.678a1.638,1.638,0,0,0,.283.557l-.7,1.4a1.069,1.069,0,0,0,.047,1.05,1.081,1.081,0,0,0,.267.292,1.633,1.633,0,1,0,2.938.217h4.743a1.633,1.633,0,1,0,2.981-.135.52.52,0,0,0-.35-.905h-9.662a.036.036,0,0,1-.032-.052l.642-1.286a1.633,1.633,0,0,0,.408.052,1.676,1.676,0,0,0,.195-.012l7.309-.86a2.183,2.183,0,0,0,1.89-1.744l.875-4.374A.52.52,0,0,0,151.67,122.673Zm-2.634,9.74a.585.585,0,1,1-.42.171.592.592,0,0,1,.42-.171Zm-7.784,0a.585.585,0,1,1-.42.171.592.592,0,0,1,.42-.171Zm-1.275-7.157-.652-2.281,2.08.094.36,2.187Zm1.6,3.785a.589.589,0,0,1-.638-.425l-.663-2.319h1.663l.437,2.651Zm3.049-.359-1.216.143-.417-2.529h1.633Zm0-3.426h-1.8l-.35-2.139,2.158.1Zm2.634,3.116-1.594.188V126.3h1.782Zm.282-3.116h-1.876v-2l2.048.093Zm2.333,2.01a1.145,1.145,0,0,1-.991.915l-.57.067.175-1.951h1.579Zm.4-2.01h-1.691l.168-1.853,1.878.085Z" transform="translate(-136.296 -120.257)" fill="#00425f"/></g></g></svg>