<svg xmlns="http://www.w3.org/2000/svg" width="34.715" height="34.715" viewBox="0 0 34.715 34.715"><g transform="translate(0 0)"><path d="M187.733,260.05a.579.579,0,0,0,.578.578h2.316a.579.579,0,0,0,.578-.578v-3.472a.579.579,0,0,0-.578-.578h-2.316a.579.579,0,0,0-.578.578Zm1.157-2.893h1.157v2.316H188.89Z" transform="translate(-175.004 -238.642)" fill="#00425f"/><path d="M188.312,158.233h2.316a.579.579,0,0,0,.578-.578v-3.472a.579.579,0,0,0-.578-.578h-2.316a.579.579,0,0,0-.578.578v3.472a.579.579,0,0,0,.578.578Zm.578-3.472h1.157v2.316h-1.157Z" transform="translate(-175.005 -143.188)" fill="#00425f"/><path d="M120.343,10.911l8.381-5.027,8.381,5.028a.579.579,0,0,0,.6-.992l-8.4-5.038V1.157h2.891V2.316h-1.734a.579.579,0,0,0,0,1.157h2.316a.579.579,0,0,0,.578-.578V.578a.579.579,0,0,0-.58-.578h-4.05a.579.579,0,0,0-.578.578v4.3l-8.4,5.039a.578.578,0,0,0,.6.991Z" transform="translate(-111.366 0)" fill="#00425f"/><path d="M54.092,260.633a.579.579,0,0,0,.578-.578v-3.472a.579.579,0,0,0-.578-.578H51.776a.579.579,0,0,0-.578.578v1.157a.579.579,0,1,0,1.157,0v-.578h1.16v2.893A.579.579,0,0,0,54.092,260.633Z" transform="translate(-47.728 -238.645)" fill="#00425f"/><path d="M137.691,196.558v-16.78a.579.579,0,1,0-1.157,0v16.779a.579.579,0,0,0,1.157,0Z" transform="translate(-127.276 -167.049)" fill="#00425f"/><path d="M102.978,366.5H122.65a.579.579,0,0,0,0-1.157h-5.207v-5.786h.578a.579.579,0,0,0,0-1.157H107.607a.579.579,0,1,0,0,1.157h.578v5.786h-5.207a.579.579,0,0,0,0,1.157Zm10.414-3.472a.579.579,0,1,0,0-1.157v-2.316h2.893v5.786h-2.893Zm-4.05-3.472h2.893v2.316a.579.579,0,1,0,0,1.157v2.316h-2.893Z" transform="translate(-95.457 -334.101)" fill="#00425f"/><path d="M412.493,366.933h-2.316a.579.579,0,0,0-.578.578v3.469a.579.579,0,0,0,.578.578h2.316a.579.579,0,0,0,.578-.578v-3.472A.579.579,0,0,0,412.493,366.933Zm-.578,3.472h-1.157v-2.316h1.158Z" transform="translate(-381.828 -342.054)" fill="#00425f"/><path d="M412.493,264.533h-2.316a.579.579,0,0,0-.578.578v3.469a.579.579,0,0,0,.578.578h2.316a.579.579,0,0,0,.578-.578v-3.472a.579.579,0,0,0-.578-.576ZM411.915,268h-1.157v-2.316h1.158Z" transform="translate(-381.828 -246.597)" fill="#00425f"/><path d="M93.146,494.933h-24.3a.579.579,0,0,0,0,1.157h24.3a.579.579,0,0,0,0-1.157Z" transform="translate(-63.638 -461.375)" fill="#00425f"/><path d="M400.055,187.733a.579.579,0,0,0-.578.578v.578h-6.365a.579.579,0,0,0,0,1.157h6.365V209.14a.579.579,0,1,0,1.157,0V188.311A.579.579,0,0,0,400.055,187.733Z" transform="translate(-365.919 -175.004)" fill="#00425f"/><path d="M273.067,260.05a.579.579,0,0,0,.578.578h2.316a.579.579,0,0,0,.578-.578v-3.472a.579.579,0,0,0-.578-.578h-2.316a.579.579,0,0,0-.578.578Zm1.157-2.893h1.157v2.316h-1.157Z" transform="translate(-254.553 -238.642)" fill="#00425f"/><path d="M5.786,314.721c0-.075-.033-7.521-2.893-7.521S0,314.648,0,314.721a2.9,2.9,0,0,0,2.316,2.835v2.952a.579.579,0,0,0,1.157,0v-2.952A2.9,2.9,0,0,0,5.786,314.721Zm-2.893,1.736a1.738,1.738,0,0,1-1.736-1.736c0-2.882.774-6.365,1.736-6.365s1.739,3.482,1.739,6.365a1.738,1.738,0,0,1-1.739,1.736Z" transform="translate(0 -286.371)" fill="#00425f"/><path d="M359.558,188.6V171.245a.579.579,0,1,0-1.157,0V188.6a.579.579,0,1,0,1.157,0Z" transform="translate(-334.1 -159.095)" fill="#00425f"/><path d="M273.645,158.233h2.316a.579.579,0,0,0,.578-.578v-3.472a.579.579,0,0,0-.578-.578h-2.316a.579.579,0,0,0-.578.578v3.472a.579.579,0,0,0,.578.578Zm.578-3.472h1.157v2.316h-1.157Z" transform="translate(-254.553 -143.188)" fill="#00425f"/><path d="M.578,195.255a.579.579,0,0,0,.578-.578v-4.632H7.521a.579.579,0,1,0,0-1.157H1.157v-.578a.579.579,0,1,0-1.157,0v6.365a.579.579,0,0,0,.578.581Z" transform="translate(0 -175.005)" fill="#00425f"/></g></svg>