<svg xmlns="http://www.w3.org/2000/svg" width="35.62" height="24.784" viewBox="0 0 35.62 24.784"><g transform="translate(0)"><g transform="translate(23.604 7.015)"><g transform="translate(0)"><path d="M340.934,201.593h-1.275a.6.6,0,0,0,0,1.2h1.275a.6.6,0,0,0,0-1.2Z" transform="translate(-339.079 -201.593)" fill="#00425f"/></g></g><g transform="translate(9.741 11.48)"><g transform="translate(0 0)"><path d="M155.891,266.216a1.227,1.227,0,0,0-.974-.475H141.25a1.235,1.235,0,0,0-1.2,1.535l.319,1.275a1.233,1.233,0,0,0,1.2.936H154.6a1.233,1.233,0,0,0,1.2-.936l.319-1.275A1.227,1.227,0,0,0,155.891,266.216Zm-.935.77-.319,1.275a.04.04,0,0,1-.039.03H141.569a.04.04,0,0,1-.039-.03l-.319-1.275a.04.04,0,0,1,.039-.05h13.666a.04.04,0,0,1,.039.05Z" transform="translate(-140.015 -265.741)" fill="#00425f"/></g></g><g transform="translate(0 0)"><g transform="translate(0 0)"><path d="M33.747,108.977a1.873,1.873,0,1,0,0-3.745h-.638a1.876,1.876,0,0,0-1.848,1.575l-1.592-4.385a2.518,2.518,0,0,0-2.359-1.652c-10.06.022-11.736-.01-19,0a2.518,2.518,0,0,0-2.359,1.652l-1.6,4.384a1.876,1.876,0,0,0-1.848-1.575H1.873a1.873,1.873,0,1,0,0,3.745H2.51a1.861,1.861,0,0,0,.821-.19l-1.367,1.708a3.159,3.159,0,0,0-.69,1.966v11.856a1.238,1.238,0,0,0,1.235,1.235H4.423a1.238,1.238,0,0,0,1.235-1.235v-2.59h24.3v2.59a1.238,1.238,0,0,0,1.235,1.235H33.11a1.238,1.238,0,0,0,1.235-1.235V112.461a3.159,3.159,0,0,0-.69-1.966l-1.367-1.708a1.861,1.861,0,0,0,.821.19Zm-31.237-1.2H1.873a.678.678,0,0,1,0-1.355H2.51a.678.678,0,0,1,0,1.355Zm1.952,16.535a.04.04,0,0,1-.04.04H2.51a.04.04,0,0,1-.04-.04v-2.963a2.5,2.5,0,0,0,1.315.373h.677v2.59Zm20.4-3.785H10.757v-1.315a.04.04,0,0,1,.04-.04H24.823a.04.04,0,0,1,.04.04v1.315Zm8.287,3.785a.04.04,0,0,1-.04.04H31.2a.04.04,0,0,1-.04-.04v-2.59h.678a2.5,2.5,0,0,0,1.315-.373v2.963Zm-.428-13.076a1.96,1.96,0,0,1,.428,1.219v6.755a1.317,1.317,0,0,1-1.315,1.315H26.057v-1.315a1.238,1.238,0,0,0-1.235-1.235H10.8a1.238,1.238,0,0,0-1.235,1.235v1.315H3.785a1.317,1.317,0,0,1-1.315-1.315v-6.754a1.959,1.959,0,0,1,.428-1.219l1.812-2.265H21.635a.6.6,0,0,0,0-1.2H5.276l1.8-4.953a1.318,1.318,0,0,1,1.236-.865h19a1.319,1.319,0,0,1,1.236.865l1.8,4.953H28.01a.6.6,0,0,0,0,1.2h2.9Zm-.289-4.137a.678.678,0,0,1,.678-.678h.637a.678.678,0,0,1,0,1.355h-.64a.678.678,0,0,1-.677-.676Z" transform="translate(0 -100.767)" fill="#00425f"/></g></g><g transform="translate(5.1 15.94)"><path d="M74.541,329.879a1.235,1.235,0,1,0,1.235,1.235A1.235,1.235,0,0,0,74.541,329.879Z" transform="translate(-73.306 -329.879)" fill="#00425f"/></g><g transform="translate(28.049 15.94)"><path d="M404.421,329.879a1.235,1.235,0,1,0,1.235,1.235A1.235,1.235,0,0,0,404.421,329.879Z" transform="translate(-403.186 -329.879)" fill="#00425f"/></g><g transform="translate(3.825 10.84)"><g transform="translate(0)"><path d="M57.17,256.573a2.191,2.191,0,1,0,2.194,2.193A2.191,2.191,0,0,0,57.17,256.573Zm0,3.187a1,1,0,1,1,1-.995A1,1,0,0,1,57.17,259.76Z" transform="translate(-54.981 -256.573)" fill="#00425f"/></g></g><g transform="translate(27.412 10.84)"><g transform="translate(0)"><path d="M396.214,256.573a2.191,2.191,0,1,0,2.192,2.193A2.191,2.191,0,0,0,396.214,256.573Zm0,3.187a1,1,0,1,1,1-.995,1,1,0,0,1-1,.995Z" transform="translate(-394.023 -256.573)" fill="#00425f"/></g></g></g></svg>