<svg xmlns="http://www.w3.org/2000/svg" width="7.885" height="16.529" viewBox="0 0 7.885 16.529"><g transform="translate(-992.999 -1234)"><g transform="translate(997.929 1238.754) rotate(90)"><g transform="translate(0)"><path d="M.137,1.971H10.921a.89.89,0,0,0,.838-.789A.952.952,0,0,0,10.953,0H.137A.153.153,0,0,0,0,.164V1.807A.153.153,0,0,0,.137,1.971Z" fill="#3bb75e"/></g></g><g transform="translate(1000.885 1234) rotate(90)"><g transform="translate(0 0)"><path d="M.116,4.194,4.388,7.808a.328.328,0,0,0,.541-.251V.329A.329.329,0,0,0,4.387.078L.116,3.692a.329.329,0,0,0,0,.5Z" fill="#3bb75e"/></g></g></g></svg>